<?xml version="1.0" encoding="utf-8"?>
<!-- Generator: Adobe Illustrator 24.3.0, SVG Export Plug-In . SVG Version: 6.00 Build 0)  -->
<svg version="1.1" id="Layer_1" xmlns="http://www.w3.org/2000/svg" xmlns:xlink="http://www.w3.org/1999/xlink" x="0px" y="0px"
	 viewBox="0 0 1920 455.7" style="enable-background:new 0 0 1920 455.7;" xml:space="preserve">
<g>
	<path d="M0,95C0,28.9,20.5,0,102.1,0h2.6c81.5,0,102.1,28.9,102.1,95v44.3h-43.7V95c0-35.9-5.1-52-23.1-52h-2.6
		c-18,0-23.1,16-23.1,52v53.3c0,35.9,7.7,52,34,52h5.1c42.4,0,53.3,18.6,53.3,66.1v94.4c0,66.1-20.5,95-102.1,95h-2.6
		C20.5,455.7,0,426.9,0,360.7V310h43v50.7c0,35.9,5.8,51.4,23.8,51.4h1.9c18,0,23.8-15.4,23.8-51.4v-72.5c0-35.9-7.7-52-34.7-52
		h-4.5C10.9,236.2,0,217.6,0,170.1V95z"/>
	<path d="M350.5,455.7c-82.2,0-102.7-28.9-102.7-95V95c0-66.1,20.5-95,102.7-95h1.9c81.5,0,102.7,28.9,102.7,95v265.8
		c0,66.1-21.2,95-102.7,95H350.5z M387.7,412.1c18,0,23.8-15.4,23.8-51.4V89.8c0-32.1-5.8-46.9-23.8-46.9h-1.9
		c-18,0-23.8,14.8-23.8,46.9v270.9c0,35.9,5.8,51.4,23.8,51.4H387.7z"/>
	<path d="M579,95c0-66.1,20.5-95,102.1-95h2.6c81.5,0,102.1,28.9,102.1,95v44.3h-43.7V95c0-35.9-5.1-52-23.1-52h-2.6
		c-18,0-23.1,16-23.1,52v53.3c0,35.9,7.7,52,34,52h5.1c42.4,0,53.3,18.6,53.3,66.1v94.4c0,66.1-20.5,95-102.1,95h-2.6
		c-81.5,0-102.1-28.9-102.1-95V310h43v50.7c0,35.9,5.8,51.4,23.8,51.4h1.9c18,0,23.8-15.4,23.8-51.4v-72.5c0-35.9-7.7-52-34.7-52
		h-4.5c-42.4,0-53.3-18.6-53.3-66.1V95z"/>
	<path d="M922.4,452.5V256.1h-48.8v196.4H830V95c0-66.1,19.9-95,102.1-95h1.9c81.5,0,102.7,28.9,102.7,95v357.6H922.4z M873.7,215.7
		h48.8V89.8c0-32.1-5.1-46.9-23.1-46.9h-1.9c-18,0-23.8,14.8-23.8,46.9V215.7z"/>
	<path d="M1080.4,95c0-66.1,20.5-95,102.1-95h2.6c81.5,0,102.1,28.9,102.1,95v44.3h-43.7V95c0-35.9-5.1-52-23.1-52h-2.6
		c-18,0-23.1,16-23.1,52v53.3c0,35.9,7.7,52,34,52h5.1c42.4,0,53.3,18.6,53.3,66.1v94.4c0,66.1-20.5,95-102.1,95h-2.6
		c-81.5,0-102.1-28.9-102.1-95V310h43v50.7c0,35.9,5.8,51.4,23.8,51.4h1.9c18,0,23.8-15.4,23.8-51.4v-72.5c0-35.9-7.7-52-34.7-52
		h-4.5c-42.4,0-53.3-18.6-53.3-66.1V95z"/>
	<path d="M1323.6,95c0-66.1,20.5-95,102.1-95h2.6c81.5,0,102.1,28.9,102.1,95v44.3h-43.7V95c0-35.9-5.1-52-23.1-52h-2.6
		c-18,0-23.1,16-23.1,52v53.3c0,35.9,7.7,52,34,52h5.1c42.4,0,53.3,18.6,53.3,66.1v94.4c0,66.1-20.5,95-102.1,95h-2.6
		c-81.5,0-102.1-28.9-102.1-95V310h43v50.7c0,35.9,5.8,51.4,23.8,51.4h1.9c18,0,23.8-15.4,23.8-51.4v-72.5c0-35.9-7.7-52-34.7-52
		h-4.5c-42.4,0-53.3-18.6-53.3-66.1V95z"/>
	<path d="M1606.1,231.7L1538.7,3.2h118.8l37.9,137.4l5.1,19.3h2.6l5.1-19.3l37.2-137.4h46.2L1720.4,242v210.6h-114.3V231.7z"/>
	<path d="M1794.8,3.2H1920l-27,285h-71.3L1794.8,3.2z M1805.7,340.2h103.4v112.3h-103.4V340.2z"/>
</g>
</svg>
